<?xml version="1.0" standalone="no"?><!DOCTYPE svg PUBLIC "-//W3C//DTD SVG 1.1//EN" "http://www.w3.org/Graphics/SVG/1.1/DTD/svg11.dtd"><svg t="1565580703012" class="icon" viewBox="0 0 1024 1024" version="1.1" xmlns="http://www.w3.org/2000/svg" p-id="6358" xmlns:xlink="http://www.w3.org/1999/xlink" width="200" height="200"><defs><style type="text/css"></style></defs><path d="M107.52 600.064s-22.528-161.792 26.624-239.616 135.168-164.864 281.6-168.96c146.432-4.096 326.656-15.36 371.712 26.624s225.28 315.392 78.848 514.048-496.64 146.432-496.64 146.432-160.768 0-262.144-278.528z" fill="#7D7874" p-id="6359"></path><path d="M152.576 592.896s-20.48-143.36 23.552-212.992 119.808-146.432 249.856-149.504c130.048-3.072 289.792-13.312 329.728 23.552s199.68 279.552 69.632 455.68S386.048 839.68 386.048 839.68s-143.36 0-233.472-246.784z" fill="#CEBDA7" p-id="6360"></path><path d="M238.592 579.584S223.232 470.016 256 416.768s91.136-111.616 190.464-114.688c99.328-2.048 221.184-10.24 251.904 17.408s152.576 212.992 53.248 348.16S415.744 768 415.744 768 307.2 768 238.592 579.584z" fill="#C2A786" p-id="6361"></path><path d="M350.208 562.176s-9.216-64.512 10.24-96.256 54.272-65.536 112.64-67.584 130.048-6.144 148.48 10.24c18.432 16.384 90.112 125.952 31.744 205.824s-197.632 58.368-197.632 58.368-64.512 0-105.472-110.592z" fill="#A88D69" p-id="6362"></path><path d="M436.224 547.84s-4.096-30.72 5.12-45.056c9.216-14.336 25.6-30.72 53.248-31.744s61.44-3.072 69.632 5.12 41.984 59.392 14.336 96.256c-27.648 36.864-93.184 27.648-93.184 27.648s-30.72 0-49.152-52.224z" fill="#877359" p-id="6363"></path><path d="M501.76 525.312m-37.888 0a37.888 37.888 0 1 0 75.776 0 37.888 37.888 0 1 0-75.776 0Z" fill="#3C3C28" p-id="6364"></path><path d="M482.304 541.696l138.24-314.368 50.176-133.12 11.264 14.336-164.864 433.152z" fill="#3C3C28" p-id="6365"></path><path d="M623.616 233.472l-72.704-114.688V56.32h24.576v53.248l57.344 91.136zM618.496 269.312h70.656l55.296-56.32h20.48l-59.392 80.896H595.968zM514.048 513.024l181.248 223.232 68.608-13.312 36.864 13.312-89.088 37.888 23.552 136.192h-39.936l-22.528-130.048-177.152-239.616z" fill="#3C3C28" p-id="6366"></path><path d="M495.616 58.368a51.2 39.936 90 1 0 79.872 0 51.2 39.936 90 1 0-79.872 0Z" fill="#29B0A1" p-id="6367"></path><path d="M483.328 158.72a54.272 24.576 0 1 0 108.544 0 54.272 24.576 0 1 0-108.544 0Z" fill="#29B0A1" p-id="6368"></path><path d="M703.488 189.44a44.032 28.672 90 1 0 57.344 0 44.032 28.672 90 1 0-57.344 0Z" fill="#29B0A1" p-id="6369"></path><path d="M692.224 293.888a53.248 29.696 0 1 0 106.496 0 53.248 29.696 0 1 0-106.496 0Z" fill="#29B0A1" p-id="6370"></path><path d="M756.736 731.136m-36.864 0a36.864 36.864 0 1 0 73.728 0 36.864 36.864 0 1 0-73.728 0Z" fill="#29B0A1" p-id="6371"></path><path d="M756.736 757.76a44.032 26.624 0 1 0 88.064 0 44.032 26.624 0 1 0-88.064 0Z" fill="#29B0A1" p-id="6372"></path><path d="M642.048 944.128a39.936 32.768 0 1 0 79.872 0 39.936 32.768 0 1 0-79.872 0Z" fill="#29B0A1" p-id="6373"></path><path d="M687.104 976.896a39.936 29.696 90 1 0 59.392 0 39.936 29.696 90 1 0-59.392 0Z" fill="#29B0A1" p-id="6374"></path><path d="M730.112 906.24m-26.624 0a26.624 26.624 0 1 0 53.248 0 26.624 26.624 0 1 0-53.248 0Z" fill="#29B0A1" p-id="6375"></path></svg>